<?xml version="1.0" encoding="utf-8"?>
<!-- Generator: Adobe Illustrator 27.4.1, SVG Export Plug-In . SVG Version: 6.00 Build 0)  -->
<svg version="1.1" id="Livello_1" xmlns="http://www.w3.org/2000/svg" xmlns:xlink="http://www.w3.org/1999/xlink" x="0px" y="0px"
	 viewBox="0 0 20 20" style="enable-background:new 0 0 20 20;" xml:space="preserve">
<style type="text/css">
	.st0{fill:#666666;}
</style>
<g>
	<path class="st0" d="M10.1535,19.9h-0.0059c-2.9542-0.0198-5.2252-0.994-6.7518-2.8948c-1.3563-1.6929-2.0572-4.0471-2.081-6.9973
		V9.9941c0.0238-2.9522,0.7247-5.3044,2.083-6.9973C4.9223,1.094,7.1953,0.1198,10.1475,0.1h0.0059h0.0059
		c2.2651,0.0158,4.16,0.598,5.6311,1.7305c1.384,1.0652,2.3582,2.5819,2.8948,4.5104l-1.683,0.4693
		c-0.9108-3.267-3.2155-4.9361-6.8508-4.9619C7.7517,1.8662,5.936,2.6205,4.756,4.0897C3.6531,5.4658,3.0829,7.4537,3.0611,10
		c0.0218,2.5463,0.592,4.5342,1.6969,5.9103c1.1801,1.4711,2.9957,2.2255,5.3955,2.2414c2.1641-0.0158,3.5957-0.5207,4.7857-1.687
		c1.3583-1.3306,1.3345-2.9641,0.8989-3.958c-0.2554-0.5861-0.7207-1.0732-1.3484-1.4434
		c-0.1584,1.1147-0.5128,2.0176-1.0593,2.6987c-0.7306,0.9088-1.7662,1.4058-3.0769,1.4771
		c-0.992,0.0535-1.9483-0.1802-2.6888-0.6613c-0.8771-0.5683-1.39-1.4355-1.4454-2.4453c-0.0535-0.9821,0.3366-1.885,1.0969-2.5423
		c0.7267-0.6277,1.7483-0.9959,2.9561-1.0652c0.889-0.0495,1.7226-0.0099,2.4908,0.1168c-0.103-0.6118-0.3089-1.0989-0.6178-1.4494
		c-0.4237-0.4831-1.0791-0.7286-1.9463-0.7346c-0.0079,0-0.0158,0-0.0238,0c-0.697,0-1.6434,0.1921-2.2453,1.089L6.4806,6.5746
		c0.8078-1.1999,2.1186-1.8612,3.6947-1.8612c0.0119,0,0.0238,0,0.0356,0c2.6354,0.0158,4.2055,1.6295,4.3619,4.4451
		c0.0891,0.0376,0.1782,0.0772,0.2653,0.1168c1.2296,0.5782,2.1285,1.4533,2.6017,2.5324c0.6574,1.5028,0.7187,3.9521-1.2771,5.9063
		c-1.5266,1.4929-3.3779,2.1681-6.0034,2.1859H10.1535L10.1535,19.9z M10.9811,10.2554c-0.2,0-0.4019,0.0059-0.6098,0.0178
		c-1.5147,0.0851-2.4592,0.7801-2.4057,1.7681c0.0554,1.0355,1.1979,1.5167,2.2968,1.4573
		c1.0098-0.0535,2.3245-0.4475,2.5463-3.0611C12.2503,10.3168,11.6385,10.2554,10.9811,10.2554z"/>
</g>
</svg>
