<?xml version="1.0" encoding="utf-8"?>
<!-- Generator: Adobe Illustrator 24.3.0, SVG Export Plug-In . SVG Version: 6.00 Build 0)  -->
<svg version="1.1" id="Livello_1" xmlns="http://www.w3.org/2000/svg" xmlns:xlink="http://www.w3.org/1999/xlink" x="0px" y="0px"
	 viewBox="0 0 20 20" style="enable-background:new 0 0 20 20;" xml:space="preserve">
<style type="text/css">
	.st0{fill:#666666;}
</style>
<path class="st0" d="M14,0L14,0l-3.4,0v6.5V8v5.6c0,1.6-1.3,3-3,3s-3-1.3-3-3c0-1.6,1.3-3,3-3c0.3,0,0.6,0.1,0.9,0.2V7.3
	c-0.3,0-0.6-0.1-0.9-0.1c-3.5,0-6.4,2.9-6.4,6.4C1.2,17.1,4,20,7.6,20s6.4-2.9,6.4-6.4V6.7c1.4,1,3,1.6,4.9,1.6V4.9
	C16.1,4.9,14,2.7,14,0z"/>
</svg>
